<?xml version="1.0" encoding="utf-8"?>
<!-- Generator: Adobe Illustrator 21.0.0, SVG Export Plug-In . SVG Version: 6.00 Build 0)  -->
<svg width="72px" height="72px" version="1.1" xmlns="http://www.w3.org/2000/svg" xmlns:xlink="http://www.w3.org/1999/xlink" x="0px" y="0px"
	 viewBox="0 0 96 96" style="enable-background:new 0 0 96 96;" xml:space="preserve">
<style type="text/css">
	.st0{display:none;}
	.st1{display:inline;fill:url(#SVGID_1_);}
	.st2{fill:#42B983;}
	.st3{display:inline;fill:#42B983;}
	.st4{display:none;fill:#FFFFFF;}
</style>
<g id="Capa_1" class="st0">
	<linearGradient id="SVGID_1_" gradientUnits="userSpaceOnUse" x1="11.1875" y1="48.0625" x2="86.4658" y2="48.0625">
		<stop  offset="0" style="stop-color:#29ABE2"/>
		<stop  offset="1" style="stop-color:#2E3192"/>
	</linearGradient>
	<path class="st1" d="M80.5,54.5c-4-4-9.6-5.9-16.9-5.9h-26v-1.1h9.9c7.3,0,12.9-2,16.9-5.9c3.9-3.9,5.9-9.7,5.9-17.3
		c0-7.6-2.1-13.5-6.4-17.8c-4.3-4.3-9.7-6.4-16.4-6.4H11.2V78h10.5V47.5h5.6V96h36.5c6.7,0,12.1-2.1,16.4-6.4
		c4.3-4.3,6.4-10.2,6.4-17.8C86.5,64.3,84.5,58.5,80.5,54.5z M21.7,8.8h23.7c4.3,0,7.7,1.4,10.5,4.1c2.4,2.4,3.6,6.2,3.6,11.4
		c0,4.6-1.4,8.2-4.1,10.9c-2.4,2.4-5.8,3.6-10,3.6H21.7V8.8z M71.9,83.2c-2.7,2.7-6.2,4.1-10.5,4.1H37.7V57.3h23.7
		c4.3,0,7.6,1.2,10,3.6c2.7,2.7,4.1,6.4,4.1,10.9C75.5,77,74.3,80.8,71.9,83.2z"/>
</g>
<g id="Capa_2">
	<g>
		<path class="st2" d="M44,43.5l-16.8,3l-5.5,1v35.6v8.1l0.1,0.8c3.6-0.6,12.3-3.3,13-6.7c0.5-2.1,2.1-3.8,4.3-4.2l0.1,0l11.3-3
			c9.4-1.7,15.8-10.6,14.3-20C63.2,48.3,53.6,41.8,44,43.5z"/>
		<path class="st2" d="M78.7,20.7L78.7,20.7C77,11.2,67.9,4.8,58.4,6.5l-17.3,3L21.7,13v35.6L47.2,44l17.3-3
			C74,39.3,80.4,30.2,78.7,20.7z"/>
	</g>
	<g class="st0">
		<path class="st3" d="M165.2,0.6l-17.7,3.1l-35.5,6.3l6.3,35.5l35.5-6.3l17.7-3.1c9.8-1.7,16.3-11.1,14.6-20.9v0
			C184.4,5.4,175-1.2,165.2,0.6z"/>
		<path class="st3" d="M150.9,48.8l-17.7,3.1l-13.3,2.3l6.3,35.5l13.3-2.3l17.7-3.1c9.8-1.7,16.3-11.1,14.6-20.9v0
			C170,53.6,160.7,47.1,150.9,48.8z"/>
		<path class="st3" d="M127.7,98.6L127.7,98.6l-1.6-8.9l8.9-1.6v0C135.9,93,132.6,97.7,127.7,98.6z"/>
	</g>
	<rect x="104.7" y="-10.8" class="st4" width="22.3" height="111.7"/>
</g>
</svg>
